# Blender v2.93.5 OBJ File: ''
# www.blender.org
mtllib icosahedron_hemi.mtl
o Icosphere_Icosphere.001
v 0.000000 -1.000000 0.000000
v 0.723600 -0.447215 0.525720
v -0.276385 -0.447215 0.850640
v -0.894425 -0.447215 0.000000
v -0.276385 -0.447215 -0.850640
v 0.723600 -0.447215 -0.525720
v 0.276385 0.447215 0.850640
v -0.723600 0.447215 0.525720
v -0.723600 0.447215 -0.525720
v 0.276385 0.447215 -0.850640
v 0.894425 0.447215 0.000000
v 0.000000 1.000000 0.000000
vt 0.338989 0.341983
vt 0.289847 0.206965
vt 0.499898 0.206966
vt 0.197489 0.317031
vt 0.499898 0.477003
vt 0.233962 0.523891
vt 0.092463 0.135120
vt 0.326324 0.000102
vt 0.592463 0.135120
vt 0.826324 0.000102
vt 0.789847 0.206965
vt 0.500102 0.388872
vt 0.697489 0.317031
vt 0.000102 0.388872
vt 0.999898 0.206966
vt 0.733962 0.523891
vt 0.999898 0.477003
vt 0.838989 0.341983
vn 0.1876 -0.7947 0.5774
vn 0.6071 -0.7947 0.0000
vn -0.4911 -0.7947 0.3568
vn -0.4911 -0.7947 -0.3568
vn 0.1876 -0.7947 -0.5774
vn 0.9822 -0.1876 0.0000
vn 0.3035 -0.1876 0.9342
vn -0.7946 -0.1876 0.5774
vn -0.7946 -0.1876 -0.5774
vn 0.3035 -0.1876 -0.9342
vn 0.7946 0.1876 0.5774
vn -0.3035 0.1876 0.9342
vn -0.9822 0.1876 0.0000
vn -0.3035 0.1876 -0.9342
vn 0.7946 0.1876 -0.5774
vn 0.4911 0.7947 0.3568
vn -0.1876 0.7947 0.5774
vn -0.6071 0.7947 0.0000
vn -0.1876 0.7947 -0.5774
vn 0.4911 0.7947 -0.3568
usemtl None
s off
f 1/1/1 2/2/1 3/3/1
f 2/2/2 1/1/2 6/4/2
f 1/1/3 3/3/3 4/5/3
f 1/1/4 4/5/4 5/6/4
f 1/1/5 5/6/5 6/4/5
f 2/2/6 6/4/6 11/7/6
f 3/3/7 2/2/7 7/8/7
f 4/9/8 3/10/8 8/11/8
f 5/12/9 4/9/9 9/13/9
f 6/4/10 5/6/10 10/14/10
f 2/2/11 11/7/11 7/8/11
f 3/10/12 7/15/12 8/11/12
f 4/9/13 8/11/13 9/13/13
f 5/12/14 9/13/14 10/16/14
f 6/4/15 10/14/15 11/7/15
f 7/15/16 11/17/16 12/18/16
f 8/11/17 7/15/17 12/18/17
f 9/13/18 8/11/18 12/18/18
f 10/16/19 9/13/19 12/18/19
f 11/17/20 10/16/20 12/18/20
